<?xml version="1.0" encoding="UTF-8" standalone="no"?>
<svg width="58px" height="58px" viewBox="0 0 58 58" version="1.1" xmlns="http://www.w3.org/2000/svg" xmlns:xlink="http://www.w3.org/1999/xlink">
    <!-- Generator: sketchtool 41.2 (35397) - http://www.bohemiancoding.com/sketch -->
    <title>907F522B-2680-4BC8-873C-F9ACF0704CF8</title>
    <desc>Created with sketchtool.</desc>
    <defs></defs>
    <g id="Page-1" stroke="none" stroke-width="1" fill="none" fill-rule="evenodd">
        <g id="Homepage" transform="translate(-572.000000, -1215.000000)" fill="#FFFFFF">
            <path d="M601,1215 C584.959262,1215 572,1228.05 572,1244 C572,1259.95 584.959262,1273 601,1273 C616.859375,1273 630,1259.95 630,1244 C630,1228.05 616.859375,1215 601,1215 M601.342726,1228 C603.555047,1228 605.491044,1229.75896 605.491044,1231.86971 L605.491044,1243.12704 L614.525043,1248.49186 C615.539076,1249.01954 616,1250.07492 616,1251.13029 C616,1251.92182 615.723561,1252.71336 615.170452,1253.50489 C614.432973,1254.56026 613.14227,1255 611.943982,1255 C611.114319,1255 610.376725,1254.73616 609.639362,1254.38436 L598.484881,1247.61238 C597.470848,1246.99674 596.917854,1245.67752 597.009924,1244.35831 L597.009924,1231.86971 C597.009924,1229.75896 598.945805,1228 601.342726,1228" id="Fill-1"></path>
        </g>
    </g>
</svg>