<?xml version="1.0" encoding="UTF-8" standalone="no"?>
<svg width="76px" height="77px" viewBox="0 0 76 77" version="1.1" xmlns="http://www.w3.org/2000/svg" xmlns:xlink="http://www.w3.org/1999/xlink">
    <!-- Generator: sketchtool 41.2 (35397) - http://www.bohemiancoding.com/sketch -->
    <title>631E5098-800A-4158-8A44-0BDF2E943099</title>
    <desc>Created with sketchtool.</desc>
    <defs></defs>
    <g id="Page-1" stroke="none" stroke-width="1" fill="none" fill-rule="evenodd">
        <g id="Homepage" transform="translate(-962.000000, -1208.000000)" fill="#FFFFFF">
            <g id="Group-2" transform="translate(962.000000, 1208.000000)">
                <path d="M38.0000468,34 C34.6852231,34 32,36.6860465 32,40.0002806 C32,43.3154498 34.6857842,46 38.0000468,46 C41.3123456,46 44,43.3154498 44,40.0002806 C44,36.685953 41.3123456,34 38.0000468,34 L38.0000468,34 Z" id="Shape"></path>
                <path d="M60.8,22.8712871 L60.8,3.81188119 L49.4,3.81188119 L49.4,11.4356436 L38,0 L0,38.1188119 L11.4,38.1188119 L11.4,77 L64.6,77 L64.6,38.1188119 L76,38.1188119 L60.8,22.8712871 L60.8,22.8712871 Z M37.905,64.276703 C37.905,64.276703 25.71422,46.5711819 25.71422,39.8185297 C25.71422,33.0647339 31.17273,27.5896337 37.905,27.5896337 C44.6367,27.5896337 50.09578,33.0647339 50.09578,39.8185297 C50.09578,46.5711819 37.905,64.276703 37.905,64.276703 L37.905,64.276703 Z" id="Shape"></path>
            </g>
        </g>
    </g>
</svg>