<?xml version="1.0" encoding="UTF-8" standalone="no"?>
<svg width="32px" height="32px" viewBox="0 0 32 32" version="1.1" xmlns="http://www.w3.org/2000/svg" xmlns:xlink="http://www.w3.org/1999/xlink">
    <!-- Generator: sketchtool 41.2 (35397) - http://www.bohemiancoding.com/sketch -->
    <title>33492965-7CE6-4E46-8FF8-B11F244645A2</title>
    <desc>Created with sketchtool.</desc>
    <defs></defs>
    <g id="Page-1" stroke="none" stroke-width="1" fill="none" fill-rule="evenodd">
        <g id="Homepage" transform="translate(-294.000000, -4927.000000)" fill="#FFFFFF">
            <g id="Group-6" transform="translate(294.000000, 4927.000000)">
                <polygon id="Fill-3" points="7.386 10.71 0.587 10.71 0.587 31.137 7.386 31.137"></polygon>
                <path d="M7.833,4.3906 C7.789,2.3886 6.356,0.8626 4.031,0.8626 C1.705,0.8626 0.185,2.3886 0.185,4.3906 C0.185,6.3516 1.66,7.9216 3.942,7.9216 L3.986,7.9216 C6.356,7.9216 7.833,6.3516 7.833,4.3906" id="Fill-5"></path>
                <path d="M31.9043,19.4248 C31.9043,13.1508 28.5503,10.2298 24.0763,10.2298 C20.4663,10.2298 18.8503,12.2128 17.9483,13.6038 L17.9483,10.7108 L11.1483,10.7108 C11.2383,12.6268 11.1483,31.1378 11.1483,31.1378 L17.9483,31.1378 L17.9483,19.7298 C17.9483,19.1188 17.9923,18.5098 18.1723,18.0728 C18.6633,16.8528 19.7823,15.5908 21.6603,15.5908 C24.1213,15.5908 25.1053,17.4638 25.1053,20.2088 L25.1053,31.1368 L31.9033,31.1368 L31.9043,19.4248 Z" id="Fill-6"></path>
            </g>
        </g>
    </g>
</svg>