<?xml version="1.0" encoding="UTF-8" standalone="no"?>
<svg width="77px" height="47px" viewBox="0 0 77 47" version="1.1" xmlns="http://www.w3.org/2000/svg" xmlns:xlink="http://www.w3.org/1999/xlink">
    <!-- Generator: sketchtool 41.2 (35397) - http://www.bohemiancoding.com/sketch -->
    <title>A8DC09C7-7BA3-4369-B466-C26A603B2A71</title>
    <desc>Created with sketchtool.</desc>
    <defs></defs>
    <g id="Page-1" stroke="none" stroke-width="1" fill="none" fill-rule="evenodd">
        <g id="Homepage" transform="translate(-162.000000, -1218.000000)" fill="#FFFFFF">
            <g id="Group-3" transform="translate(162.000000, 1218.000000)">
                <path d="M27,4 L73,4 C75.209139,4 77,5.790861 77,8 C77,10.209139 75.209139,12 73,12 L27,12 C24.790861,12 23,10.209139 23,8 C23,5.790861 24.790861,4 27,4 L27,4 Z" id="Rectangle-15"></path>
                <path d="M27,21 L73,21 C75.209139,21 77,22.790861 77,25 C77,27.209139 75.209139,29 73,29 L27,29 C24.790861,29 23,27.209139 23,25 C23,22.790861 24.790861,21 27,21 L27,21 Z" id="Rectangle-15-Copy"></path>
                <path d="M27,39 L73,39 C75.209139,39 77,40.790861 77,43 C77,45.209139 75.209139,47 73,47 L27,47 C24.790861,47 23,45.209139 23,43 C23,40.790861 24.790861,39 27,39 L27,39 Z" id="Rectangle-15-Copy-2"></path>
                <polygon id="Rectangle-15" points="6.66739186 9.04539765 2.28721049 4.66521629 0 6.95242678 4.38018137 11.3326081 4.34569993 11.3670896 6.63291042 13.6543001 18 2.28721049 15.7127895 0"></polygon>
                <circle id="Oval-4" cx="9" cy="26" r="4"></circle>
                <circle id="Oval-4-Copy" cx="9" cy="43" r="4"></circle>
            </g>
        </g>
    </g>
</svg>