<?xml version="1.0" encoding="UTF-8" standalone="no"?>
<svg width="67px" height="69px" viewBox="0 0 67 69" version="1.1" xmlns="http://www.w3.org/2000/svg" xmlns:xlink="http://www.w3.org/1999/xlink">
    <!-- Generator: sketchtool 41.2 (35397) - http://www.bohemiancoding.com/sketch -->
    <title>AF54E5BC-29F0-47FE-8EAC-48DB59BDEB09</title>
    <desc>Created with sketchtool.</desc>
    <defs></defs>
    <g id="Page-1" stroke="none" stroke-width="1" fill="none" fill-rule="evenodd">
        <g id="Homepage" transform="translate(-98.000000, -16.000000)" fill="#FEFEFE">
            <path d="M129.347,24.914 L98,79.22 L102.023,84.868 L164.831,84.868 L136.909,36.505 L139.126,32.663 L142.407,16 L129.347,24.914 Z M131.81,26.828 L138.095,22.537 L136.421,31.036 L131.243,32.967 L131.81,26.828 Z M135.196,39.474 L139.124,46.277 L117.678,81.899 L110.705,81.899 L135.196,39.474 Z M140.82,49.214 L144.31,55.259 L128.929,81.899 L121.142,81.899 L140.82,49.214 Z M146.023,58.226 L149.722,64.633 L139.755,81.899 L132.357,81.899 L146.023,58.226 Z M151.436,67.602 L155.135,74.009 L150.58,81.899 L143.182,81.899 L151.436,67.602 Z M156.848,76.977 L159.691,81.899 L154.007,81.899 L156.848,76.977 Z" id="Page-1"></path>
        </g>
    </g>
</svg>