<?xml version="1.0" encoding="UTF-8"?>
<svg width="50px" height="40px" viewBox="0 0 50 40" version="1.1" xmlns="http://www.w3.org/2000/svg" xmlns:xlink="http://www.w3.org/1999/xlink" xmlns:sketch="http://www.bohemiancoding.com/sketch/ns">
    <!-- Generator: Sketch 3.1.1 (8761) - http://www.bohemiancoding.com/sketch -->
    <title>noun_576442_cc</title>
    <desc>Created with Sketch.</desc>
    <defs></defs>
    <g id="Page-1" stroke="none" stroke-width="1" fill="none" fill-rule="evenodd" sketch:type="MSPage">
        <g id="noun_576442_cc" sketch:type="MSLayerGroup" transform="translate(-5.000000, 2.000000)" fill="#000000">
            <g id="Group" sketch:type="MSShapeGroup">
                <path d="M15.18,20.772 C17.268,19.092 19.896,18.456 21.972,16.908 C24.288,15.18 26.64,12.156 27.972,9.66 C28.224,9.264 28.812,9.12 29.172,9.456 C30.06,10.512 31.236,11.16 32.196,12.096 C33.084,12.996 33.876,13.884 34.68,14.88 C35.22,15.576 35.712,16.32 36.324,16.968 C36.504,17.112 36.72,17.304 36.852,17.508 L36.9,17.556 C37.296,17.352 37.704,17.16 38.148,17.064 C39.72,16.764 41.052,17.748 42.156,18.744 C43.404,19.992 44.94,21.324 45.888,22.824 C46.812,24.3 47.448,26.64 48.78,27.78 C48.948,27.924 49.788,27.48 49.98,27.384 C50.424,27.276 50.988,27.432 51.384,27.528 C52.068,27.744 52.716,28.128 53.256,28.632 C53.868,26.592 54.144,24.444 54.144,22.284 C54.144,8.94 43.344,-1.872 30,-1.872 C16.656,-1.872 5.844,8.928 5.844,22.272 C5.844,25.584 6.552,28.764 7.74,31.632 C8.724,30.048 9.66,28.5 10.416,27.468 C11.916,25.296 13.092,22.476 15.18,20.772 L15.18,20.772 Z" id="Shape"></path>
                <path d="M45.432,26.688 C44.28,27.876 42.852,28.68 41.172,28.86 C41.004,28.86 40.92,28.62 41.052,28.584 C42.408,27.876 43.836,26.244 44.292,24.708 C44.292,24.612 44.34,24.456 44.388,24.36 C43.656,23.556 42.852,22.872 42.156,22.176 C41.568,21.624 40.908,21.084 40.164,20.736 C39.228,22.776 37.752,24.708 36.06,26.196 C35.316,28.188 34.236,30.06 33.18,31.908 C32.868,32.388 32.424,32.928 31.884,33.42 C33.036,33.18 34.272,33.024 35.472,33.144 C38.544,33.42 41.448,31.992 43.74,29.964 C45.12,28.716 45.78,27.576 45.972,26.388 C45.924,26.34 45.924,26.28 45.876,26.244 C45.744,26.388 45.576,26.544 45.432,26.688 L45.432,26.688 Z" id="Shape"></path>
                <path d="M16.56,32.484 C21.312,30.708 26.376,28.188 29.844,24.348 C30.288,23.856 30.684,23.412 31.092,22.968 C28.272,24.564 25.536,26.34 22.416,27.336 C22.368,27.336 22.32,27.276 22.368,27.276 C24.636,25.536 27.528,23.856 28.908,21.264 C29.712,19.788 30.504,18 31.488,16.416 C30.408,15.276 29.304,14.184 28.812,12.9 C28.812,12.948 28.764,12.996 28.716,13.044 C27.384,15.576 24.996,18.6 22.728,20.28 C20.64,21.828 18.012,22.524 15.924,24.168 C13.836,25.848 12.648,28.728 11.124,30.864 C10.416,31.944 10.908,32.748 9.972,34.272 C10.536,35.556 11.172,36.756 11.844,37.884 L12.144,37.884 C13.524,37.044 15.024,36.408 16.668,35.856 C18.144,35.364 19.74,35.112 21.168,34.524 C23.088,33.684 24.192,32.256 25.572,30.948 C22.644,31.788 19.692,32.436 16.596,32.7 C16.512,32.748 16.416,32.532 16.56,32.484 L16.56,32.484 Z" id="Shape"></path>
            </g>
        </g>
    </g>
</svg>